<svg xmlns="http://www.w3.org/2000/svg" viewBox="0 0 100 100">
  <!-- Background circle -->
  <circle cx="50" cy="50" r="48" fill="#f5a623"/>

  <!-- Hamster face -->
  <ellipse cx="50" cy="55" rx="35" ry="30" fill="#ffcc80"/>

  <!-- Ears -->
  <ellipse cx="25" cy="30" rx="12" ry="14" fill="#ffcc80"/>
  <ellipse cx="25" cy="30" rx="7" ry="9" fill="#ffab91"/>
  <ellipse cx="75" cy="30" rx="12" ry="14" fill="#ffcc80"/>
  <ellipse cx="75" cy="30" rx="7" ry="9" fill="#ffab91"/>

  <!-- Cheeks -->
  <ellipse cx="28" cy="60" rx="14" ry="12" fill="#ffe0b2"/>
  <ellipse cx="72" cy="60" rx="14" ry="12" fill="#ffe0b2"/>

  <!-- Eyes -->
  <ellipse cx="38" cy="48" rx="6" ry="7" fill="#333"/>
  <ellipse cx="62" cy="48" rx="6" ry="7" fill="#333"/>
  <ellipse cx="40" cy="46" rx="2" ry="2.5" fill="#fff"/>
  <ellipse cx="64" cy="46" rx="2" ry="2.5" fill="#fff"/>

  <!-- Nose -->
  <ellipse cx="50" cy="58" rx="5" ry="4" fill="#e57373"/>

  <!-- Mouth -->
  <path d="M 45 65 Q 50 70 55 65" stroke="#795548" stroke-width="2" fill="none"/>

  <!-- Whiskers -->
  <line x1="15" y1="55" x2="30" y2="58" stroke="#795548" stroke-width="1.5"/>
  <line x1="15" y1="62" x2="30" y2="62" stroke="#795548" stroke-width="1.5"/>
  <line x1="70" y1="58" x2="85" y2="55" stroke="#795548" stroke-width="1.5"/>
  <line x1="70" y1="62" x2="85" y2="62" stroke="#795548" stroke-width="1.5"/>
</svg>
